<svg xmlns="http://www.w3.org/2000/svg" xmlns:v="https://svgstorm.com"
viewBox = "0 0 512 512"
width="512"
height="512">
<g fill="None" fill-opacity="0.0" stroke="#000000" stroke-opacity="0.01" stroke-width="0.3"><path d="
M 0.00 512.00 
L 86.00 512.00
C 58.10 507.32 60.16 487.71 61.00 457.00 C 61.84 426.29 60.68 389.06 61.00 357.00 C 61.32 324.94 60.98 288.41 61.00 256.00 C 61.02 223.59 61.26 188.05 61.00 156.00 C 60.74 123.95 61.73 86.82 61.00 56.00 C 60.27 25.18 57.65 4.55 86.00 0.00
L 0.00 0.00
L 0.00 512.00 Z"/>
</g>
<g fill="None" fill-opacity="0.0" stroke="#000000" stroke-opacity="1.00" stroke-width="0.3"><path d="
M 86.00 512.00 
L 432.00 512.00
C 438.10 508.74 444.45 505.27 448.39 497.25 C 452.34 489.22 451.10 477.13 451.00 464.00 C 450.90 450.87 451.14 433.40 451.00 420.00 C 450.86 406.60 451.27 389.92 451.00 377.00 C 450.73 364.08 451.58 344.46 451.00 333.00 C 450.42 321.54 454.89 302.66 445.00 303.00
C 431.64 303.46 438.07 324.90 437.00 335.00 C 435.93 345.10 437.74 365.33 437.00 376.00 C 436.26 386.67 437.33 387.52 437.00 396.00 C 436.67 404.48 437.15 408.50 437.00 416.00 C 436.85 423.50 437.07 429.94 437.00 437.00 C 436.93 444.06 437.04 450.29 437.00 457.00 C 436.96 463.71 437.04 470.62 437.00 477.00 C 436.96 483.38 437.46 489.27 432.75 493.75 C 428.05 498.23 422.33 496.87 416.00 497.00 C 409.67 497.13 402.55 496.94 396.00 497.00 C 389.45 497.06 382.71 496.97 376.00 497.00 C 369.29 497.03 361.76 496.99 355.00 497.00 C 348.24 497.01 341.75 496.99 335.00 497.00 C 328.25 497.01 321.79 497.00 315.00 497.00 C 308.21 497.00 300.79 497.00 294.00 497.00 C 287.21 497.00 280.76 497.00 274.00 497.00 C 267.24 497.00 260.79 497.00 254.00 497.00 C 247.21 497.00 239.79 497.00 233.00 497.00 C 226.21 497.00 219.74 497.00 213.00 497.00 C 206.26 497.00 199.73 497.00 193.00 497.00 C 186.27 497.00 179.77 496.99 173.00 497.00 C 166.23 497.01 158.76 496.98 152.00 497.00 C 145.24 497.02 138.68 496.96 132.00 497.00 C 125.32 497.04 118.60 496.90 112.00 497.00 C 105.40 497.10 97.39 496.80 91.00 497.00 C 84.61 497.20 80.43 496.27 77.08 490.92 C 73.74 485.57 75.18 479.49 75.00 473.00 C 74.82 466.51 75.09 458.64 75.00 452.00 C 74.91 445.36 75.04 438.67 75.00 432.00 C 74.96 425.33 75.02 418.71 75.00 412.00 C 74.98 405.29 75.01 398.78 75.00 392.00 C 74.99 385.22 75.00 377.79 75.00 371.00 C 75.00 364.21 75.00 357.76 75.00 351.00 C 75.00 344.24 75.00 337.80 75.00 331.00 C 75.00 324.20 75.00 316.80 75.00 310.00 C 75.00 303.20 75.00 296.76 75.00 290.00 C 75.00 283.24 75.00 276.79 75.00 270.00 C 75.00 263.21 75.00 255.79 75.00 249.00 C 75.00 242.21 75.00 235.74 75.00 229.00 C 75.00 222.26 75.00 215.74 75.00 209.00 C 75.00 202.26 75.00 195.78 75.00 189.00 C 75.00 182.22 75.00 174.79 75.00 168.00 C 75.00 161.21 75.00 154.75 75.00 148.00 C 75.00 141.25 74.99 134.76 75.00 128.00 C 75.01 121.24 74.99 113.73 75.00 107.00 C 75.01 100.27 74.97 93.60 75.00 87.00 C 75.03 80.40 74.93 73.42 75.00 67.00 C 75.07 60.58 74.85 52.00 75.00 46.00 C 75.15 40.00 74.65 30.91 75.00 26.00 C 75.35 21.09 79.90 15.17 84.22 15.22 C 88.55 15.28 101.52 12.56 105.00 15.00
C 108.36 17.35 105.28 30.00 106.00 34.00
C 107.17 37.70 108.58 40.00 113.00 40.00
C 117.39 40.00 118.82 37.73 120.00 34.00
C 120.73 29.95 117.64 17.35 121.00 15.00
C 124.37 12.64 133.56 15.51 138.00 15.00 C 142.44 14.49 151.51 14.27 156.00 15.00 C 160.49 15.73 170.48 12.53 174.00 15.00
C 177.84 17.69 174.00 29.03 175.00 34.00 C 176.00 38.97 174.70 48.51 175.00 54.00 C 175.30 59.49 175.19 68.76 175.00 74.00 C 174.81 79.24 176.65 91.09 173.00 91.00
C 163.94 90.78 157.08 76.03 147.00 78.00 C 136.92 79.97 129.93 87.24 121.00 92.00
C 118.06 84.36 121.50 74.36 120.00 66.00
C 118.83 62.30 117.42 60.00 113.00 60.00
C 108.61 60.00 107.18 62.27 106.00 66.00
C 104.36 75.14 104.86 88.77 106.00 98.00
C 111.63 120.73 136.36 100.73 147.00 93.00
C 158.90 99.61 182.92 121.28 189.00 98.00
C 189.74 91.34 188.47 83.60 189.00 77.00 C 189.53 70.40 188.33 62.27 189.00 56.00 C 189.67 49.73 187.74 40.45 189.00 35.00 C 190.26 29.55 185.84 17.91 190.00 15.00
C 194.70 11.71 205.04 16.48 211.00 15.00 C 216.96 13.52 225.47 15.67 232.00 15.00 C 238.53 14.33 246.21 15.30 253.00 15.00 C 259.79 14.70 267.08 15.14 274.00 15.00 C 280.92 14.86 288.01 15.06 295.00 15.00 C 301.99 14.94 308.96 15.03 316.00 15.00 C 323.04 14.97 329.87 15.01 337.00 15.00 C 344.13 14.99 351.82 15.01 359.00 15.00
C 358.51 28.96 359.65 46.39 359.00 60.00 C 358.35 73.61 358.34 88.89 374.00 91.00
C 380.55 91.67 388.58 90.29 395.00 91.00 C 401.42 91.71 410.09 89.79 416.00 91.00 C 421.91 92.21 432.02 88.02 436.00 92.00
C 440.66 96.66 435.56 109.05 437.00 116.00 C 438.44 122.95 436.35 133.31 437.00 141.00 C 437.65 148.69 436.71 157.98 437.00 166.00 C 437.29 174.02 436.88 182.87 437.00 191.00 C 437.12 199.13 436.96 207.90 437.00 216.00 C 437.04 224.10 437.01 233.08 437.00 241.00 C 436.99 248.92 437.07 258.54 437.00 266.00 C 436.93 273.46 435.29 283.88 445.00 284.00
C 454.90 284.12 450.44 266.64 451.00 255.00 C 451.56 243.36 450.70 224.17 451.00 211.00 C 451.30 197.83 450.77 181.87 451.00 168.00 C 451.23 154.13 450.68 138.12 451.00 124.00 C 451.32 109.88 449.94 94.71 452.00 81.00
C 422.46 56.73 396.59 22.64 368.00 0.00
L 86.00 0.00
C 57.65 4.55 60.27 25.18 61.00 56.00 C 61.73 86.82 60.74 123.95 61.00 156.00 C 61.26 188.05 61.02 223.59 61.00 256.00 C 60.98 288.41 61.32 324.94 61.00 357.00 C 60.68 389.06 61.84 426.29 61.00 457.00 C 60.16 487.71 58.10 507.32 86.00 512.00
M 425.00 76.00 
C 424.97 77.29 407.16 77.79 402.00 77.00 C 396.84 76.21 380.56 79.29 376.00 76.00
C 370.25 71.85 375.48 58.97 374.00 52.00 C 372.52 45.03 375.11 33.39 374.00 26.00
C 391.35 42.14 408.88 58.51 425.00 76.00 Z"/>
</g>
<g fill="None" fill-opacity="0.0" stroke="#000000" stroke-opacity="0.01" stroke-width="0.3"><path d="
M 445.00 284.00 
C 443.82 287.64 443.82 299.36 445.00 303.00
C 454.89 302.66 450.42 321.54 451.00 333.00 C 451.58 344.46 450.73 364.08 451.00 377.00 C 451.27 389.92 450.86 406.60 451.00 420.00 C 451.14 433.40 450.90 450.87 451.00 464.00 C 451.10 477.13 452.34 489.22 448.39 497.25 C 444.45 505.27 438.10 508.74 432.00 512.00
L 512.00 512.00
L 512.00 0.00
L 368.00 0.00
C 396.59 22.64 422.46 56.73 452.00 81.00
C 449.94 94.71 451.32 109.88 451.00 124.00 C 450.68 138.12 451.23 154.13 451.00 168.00 C 450.77 181.87 451.30 197.83 451.00 211.00 C 450.70 224.17 451.56 243.36 451.00 255.00 C 450.44 266.64 454.90 284.12 445.00 284.00 Z"/>
</g>
<g fill="None" fill-opacity="0.0" stroke="#F3F6F7" stroke-opacity="1.00" stroke-width="0.3"><path d="
M 445.00 303.00 
C 443.82 299.36 443.82 287.64 445.00 284.00
C 435.29 283.88 436.93 273.46 437.00 266.00 C 437.07 258.54 436.99 248.92 437.00 241.00 C 437.01 233.08 437.04 224.10 437.00 216.00 C 436.96 207.90 437.12 199.13 437.00 191.00 C 436.88 182.87 437.29 174.02 437.00 166.00 C 436.71 157.98 437.65 148.69 437.00 141.00 C 436.35 133.31 438.44 122.95 437.00 116.00 C 435.56 109.05 440.66 96.66 436.00 92.00
C 431.39 88.77 420.86 93.39 415.00 92.00 C 409.14 90.61 400.35 92.46 394.00 92.00 C 387.65 91.54 379.77 92.28 374.00 91.00
C 358.34 88.89 358.35 73.61 359.00 60.00 C 359.65 46.39 358.51 28.96 359.00 15.00
C 351.82 15.01 344.13 14.99 337.00 15.00 C 329.87 15.01 323.04 14.97 316.00 15.00 C 308.96 15.03 301.99 14.94 295.00 15.00 C 288.01 15.06 280.92 14.86 274.00 15.00 C 267.08 15.14 259.79 14.70 253.00 15.00 C 246.21 15.30 238.53 14.33 232.00 15.00 C 225.47 15.67 216.96 13.52 211.00 15.00 C 205.04 16.48 194.70 11.71 190.00 15.00
C 186.58 41.86 195.01 72.18 189.00 98.00
C 182.92 121.28 158.90 99.61 147.00 93.00
C 136.36 100.73 111.63 120.73 106.00 98.00
C 103.94 89.68 103.41 74.18 106.00 66.00
C 107.18 62.27 108.61 60.00 113.00 60.00
C 113.00 53.33 113.00 46.67 113.00 40.00
C 108.58 40.00 107.17 37.70 106.00 34.00
C 104.24 28.42 105.24 21.30 105.00 15.00
C 101.52 12.56 88.55 15.28 84.22 15.22 C 79.90 15.17 75.35 21.09 75.00 26.00 C 74.65 30.91 75.15 40.00 75.00 46.00 C 74.85 52.00 75.07 60.58 75.00 67.00 C 74.93 73.42 75.03 80.40 75.00 87.00 C 74.97 93.60 75.01 100.27 75.00 107.00 C 74.99 113.73 75.01 121.24 75.00 128.00 C 74.99 134.76 75.00 141.25 75.00 148.00 C 75.00 154.75 75.00 161.21 75.00 168.00 C 75.00 174.79 75.00 182.22 75.00 189.00 C 75.00 195.78 75.00 202.26 75.00 209.00 C 75.00 215.74 75.00 222.26 75.00 229.00 C 75.00 235.74 75.00 242.21 75.00 249.00 C 75.00 255.79 75.00 263.21 75.00 270.00 C 75.00 276.79 75.00 283.24 75.00 290.00 C 75.00 296.76 75.00 303.20 75.00 310.00 C 75.00 316.80 75.00 324.20 75.00 331.00 C 75.00 337.80 75.00 344.24 75.00 351.00 C 75.00 357.76 75.00 364.21 75.00 371.00 C 75.00 377.79 74.99 385.22 75.00 392.00 C 75.01 398.78 74.98 405.29 75.00 412.00 C 75.02 418.71 74.96 425.33 75.00 432.00 C 75.04 438.67 74.91 445.36 75.00 452.00 C 75.09 458.64 74.82 466.51 75.00 473.00 C 75.18 479.49 73.74 485.57 77.08 490.92 C 80.43 496.27 84.61 497.20 91.00 497.00 C 97.39 496.80 105.40 497.10 112.00 497.00 C 118.60 496.90 125.32 497.04 132.00 497.00 C 138.68 496.96 145.24 497.02 152.00 497.00 C 158.76 496.98 166.23 497.01 173.00 497.00 C 179.77 496.99 186.27 497.00 193.00 497.00 C 199.73 497.00 206.26 497.00 213.00 497.00 C 219.74 497.00 226.21 497.00 233.00 497.00 C 239.79 497.00 247.21 497.00 254.00 497.00 C 260.79 497.00 267.24 497.00 274.00 497.00 C 280.76 497.00 287.21 497.00 294.00 497.00 C 300.79 497.00 308.21 497.00 315.00 497.00 C 321.79 497.00 328.25 497.01 335.00 497.00 C 341.75 496.99 348.24 497.01 355.00 497.00 C 361.76 496.99 369.29 497.03 376.00 497.00 C 382.71 496.97 389.45 497.06 396.00 497.00 C 402.55 496.94 409.67 497.13 416.00 497.00 C 422.33 496.87 428.05 498.23 432.75 493.75 C 437.46 489.27 436.96 483.38 437.00 477.00 C 437.04 470.62 436.96 463.71 437.00 457.00 C 437.04 450.29 436.93 444.06 437.00 437.00 C 437.07 429.94 436.85 423.50 437.00 416.00 C 437.15 408.50 436.67 404.48 437.00 396.00 C 437.33 387.52 436.26 386.67 437.00 376.00 C 437.74 365.33 435.93 345.10 437.00 335.00 C 438.07 324.90 431.64 303.46 445.00 303.00
M 133.00 187.00 
C 134.46 199.66 131.05 209.00 133.00 222.00 C 134.95 235.00 117.15 236.27 118.00 223.00 C 118.86 209.73 117.36 199.95 118.00 187.00
C 108.12 193.06 100.58 174.49 110.70 172.70 C 120.81 170.91 130.91 171.00 141.07 172.93 C 151.23 174.85 143.06 193.02 133.00 187.00
M 185.00 172.00 
C 206.89 173.82 220.35 201.98 207.23 220.23 C 194.11 238.48 165.61 237.44 155.08 216.92 C 144.55 196.40 161.02 170.01 185.00 172.00
M 382.00 172.00 
C 420.18 178.84 408.50 240.79 369.78 232.22 C 331.06 223.66 343.55 165.11 382.00 172.00
M 312.00 232.00 
C 307.14 232.79 300.84 233.78 296.00 232.00
C 292.39 230.67 292.06 229.48 291.00 226.00
C 288.97 219.30 289.94 210.55 290.00 203.00 C 290.06 195.45 288.88 185.72 291.00 179.00
C 294.22 168.82 315.99 170.68 324.75 177.25 C 333.50 183.83 338.18 198.65 335.22 210.22 C 332.26 221.79 325.17 231.29 312.00 232.00
M 267.00 195.00 
C 275.59 197.00 274.34 210.72 265.00 210.00 C 255.65 209.27 245.14 210.76 236.00 210.00 C 226.86 209.24 229.56 194.05 238.03 195.03 C 246.49 196.00 258.52 193.03 267.00 195.00
M 162.00 266.00 
C 176.25 268.95 171.79 289.64 172.00 300.00 C 172.21 310.36 175.86 332.50 160.98 332.98 C 146.09 333.45 130.74 334.07 116.00 333.00 C 101.26 331.93 106.51 308.07 106.00 299.00 C 105.49 289.93 102.56 265.54 117.07 266.07 C 131.59 266.61 147.87 263.07 162.00 266.00
M 400.00 274.00 
C 412.77 276.97 403.31 292.69 392.00 289.00 C 380.69 285.31 368.59 290.72 357.00 289.00 C 345.41 287.28 332.69 290.00 321.00 289.00 C 309.31 288.00 297.70 289.92 286.00 289.00 C 274.30 288.08 262.73 290.45 251.00 289.00 C 239.27 287.55 226.68 291.86 215.00 289.00 C 203.32 286.14 211.85 270.96 223.00 274.00 C 234.15 277.04 246.49 272.57 258.00 274.00 C 269.51 275.43 282.38 273.15 294.00 274.00 C 305.62 274.85 317.40 273.19 329.00 274.00 C 340.60 274.81 352.47 272.68 364.00 274.00 C 375.53 275.32 388.73 271.38 400.00 274.00
M 345.00 310.00 
C 355.89 313.63 346.17 327.86 336.00 325.00 C 325.83 322.14 311.57 326.04 301.00 325.00 C 290.43 323.96 276.25 324.92 266.00 325.00 C 255.75 325.08 241.02 323.64 232.00 325.00 C 222.98 326.36 204.41 324.36 209.93 313.93 C 215.45 303.49 231.41 311.92 241.00 310.00 C 250.59 308.08 264.53 310.23 275.00 310.00 C 285.47 309.77 299.39 308.83 310.00 310.00 C 320.61 311.17 334.95 306.65 345.00 310.00
M 164.00 372.00 
C 177.85 375.43 170.04 397.58 172.00 408.00 C 173.96 418.42 173.52 440.73 158.00 438.00 C 142.48 435.27 128.94 441.33 114.33 437.67 C 99.72 434.01 108.06 412.58 106.00 402.00 C 103.94 391.42 104.80 369.56 120.00 372.00 C 135.20 374.44 149.38 368.38 164.00 372.00
M 402.00 380.00 
C 412.16 383.75 402.75 398.16 393.00 395.00 C 383.25 391.84 370.28 396.42 360.00 395.00 C 349.72 393.58 338.46 395.50 328.00 395.00 C 317.54 394.50 305.40 394.98 295.00 395.00 C 284.60 395.02 271.93 394.44 262.00 395.00 C 252.07 395.56 238.77 393.46 230.00 395.00 C 221.23 396.54 204.70 393.91 209.93 383.93 C 215.15 373.95 228.70 381.82 238.00 380.00 C 247.30 378.18 260.85 380.71 271.00 380.00 C 281.15 379.29 293.56 380.07 304.00 380.00 C 314.44 379.93 325.53 379.42 336.00 380.00 C 346.47 380.58 358.73 378.46 369.00 380.00 C 379.27 381.54 392.43 376.47 402.00 380.00
M 344.00 416.00 
C 357.55 421.00 344.84 432.82 334.00 430.00 C 323.16 427.18 309.29 430.71 298.00 430.00 C 286.71 429.29 273.27 429.08 262.00 430.00 C 250.73 430.92 236.76 426.83 226.00 430.00 C 215.24 433.17 200.81 421.24 215.00 416.00
C 227.02 411.56 243.57 415.75 257.00 415.00 C 270.43 414.25 287.51 414.16 301.00 415.00 C 314.49 415.84 331.91 411.54 344.00 416.00 Z"/>
</g>
<g fill="None" fill-opacity="0.0" stroke="#8A8C8D" stroke-opacity="1.00" stroke-width="0.3"><path d="
M 106.00 34.00 
C 105.28 30.00 108.36 17.35 105.00 15.00
C 105.24 21.30 104.24 28.42 106.00 34.00 Z"/>
</g>
<g fill="None" fill-opacity="0.0" stroke="#722C31" stroke-opacity="1.00" stroke-width="0.3"><path d="
M 120.00 34.00 
C 121.76 28.42 120.76 21.30 121.00 15.00
C 117.64 17.35 120.73 29.95 120.00 34.00 Z"/>
</g>
<g fill="None" fill-opacity="0.0" stroke="#FD5D68" stroke-opacity="1.00" stroke-width="0.3"><path d="
M 120.00 34.00 
C 118.82 37.73 117.39 40.00 113.00 40.00
C 113.00 46.67 113.00 53.33 113.00 60.00
C 117.42 60.00 118.83 62.30 120.00 66.00
C 122.44 73.71 120.25 83.52 121.00 92.00
C 129.93 87.24 136.92 79.97 147.00 78.00 C 157.08 76.03 163.94 90.78 173.00 91.00
C 175.33 66.57 173.34 40.18 174.00 15.00
C 170.48 12.53 160.49 15.73 156.00 15.00 C 151.51 14.27 142.44 14.49 138.00 15.00 C 133.56 15.51 124.37 12.64 121.00 15.00
C 120.76 21.30 121.76 28.42 120.00 34.00 Z"/>
</g>
<g fill="None" fill-opacity="0.0" stroke="#84252C" stroke-opacity="1.00" stroke-width="0.3"><path d="
M 173.00 91.00 
C 176.65 91.09 174.81 79.24 175.00 74.00 C 175.19 68.76 175.30 59.49 175.00 54.00 C 174.70 48.51 176.00 38.97 175.00 34.00 C 174.00 29.03 177.84 17.69 174.00 15.00
C 173.34 40.18 175.33 66.57 173.00 91.00 Z"/>
</g>
<g fill="None" fill-opacity="0.0" stroke="#767878" stroke-opacity="1.00" stroke-width="0.3"><path d="
M 189.00 98.00 
C 195.01 72.18 186.58 41.86 190.00 15.00
C 185.84 17.91 190.26 29.55 189.00 35.00 C 187.74 40.45 189.67 49.73 189.00 56.00 C 188.33 62.27 189.53 70.40 189.00 77.00 C 188.47 83.60 189.74 91.34 189.00 98.00 Z"/>
</g>
<g fill="None" fill-opacity="0.0" stroke="#CBD8E0" stroke-opacity="1.00" stroke-width="0.3"><path d="
M 376.00 76.00 
C 382.61 79.27 392.74 73.90 400.00 76.00 C 407.26 78.10 417.73 73.62 425.00 76.00
C 408.88 58.51 391.35 42.14 374.00 26.00
C 375.11 33.39 372.52 45.03 374.00 52.00 C 375.48 58.97 370.25 71.85 376.00 76.00 Z"/>
</g>
<g fill="None" fill-opacity="0.0" stroke="#8A8C8C" stroke-opacity="1.00" stroke-width="0.3"><path d="
M 106.00 98.00 
C 104.86 88.77 104.36 75.14 106.00 66.00
C 103.41 74.18 103.94 89.68 106.00 98.00 Z"/>
</g>
<g fill="None" fill-opacity="0.0" stroke="#712C31" stroke-opacity="1.00" stroke-width="0.3"><path d="
M 121.00 92.00 
C 120.25 83.52 122.44 73.71 120.00 66.00
C 121.50 74.36 118.06 84.36 121.00 92.00 Z"/>
</g>
<g fill="None" fill-opacity="0.0" stroke="#757D83" stroke-opacity="1.00" stroke-width="0.3"><path d="
M 425.00 76.00 
C 417.73 73.62 407.26 78.10 400.00 76.00 C 392.74 73.90 382.61 79.27 376.00 76.00
C 380.56 79.29 396.84 76.21 402.00 77.00 C 407.16 77.79 424.97 77.29 425.00 76.00 Z"/>
</g>
<g fill="None" fill-opacity="0.0" stroke="#616263" stroke-opacity="1.00" stroke-width="0.3"><path d="
M 436.00 92.00 
C 432.02 88.02 421.91 92.21 416.00 91.00 C 410.09 89.79 401.42 91.71 395.00 91.00 C 388.58 90.29 380.55 91.67 374.00 91.00
C 379.77 92.28 387.65 91.54 394.00 92.00 C 400.35 92.46 409.14 90.61 415.00 92.00 C 420.86 93.39 431.39 88.77 436.00 92.00 Z"/>
</g>
<g fill="None" fill-opacity="0.0" stroke="#000000" stroke-opacity="1.00" stroke-width="0.3"><path d="
M 133.00 187.00 
C 143.06 193.02 151.23 174.85 141.07 172.93 C 130.91 171.00 120.81 170.91 110.70 172.70 C 100.58 174.49 108.12 193.06 118.00 187.00
C 117.36 199.95 118.86 209.73 118.00 223.00 C 117.15 236.27 134.95 235.00 133.00 222.00 C 131.05 209.00 134.46 199.66 133.00 187.00 Z"/>
</g>
<g fill="None" fill-opacity="0.0" stroke="#000000" stroke-opacity="1.00" stroke-width="0.3"><path d="
M 185.00 172.00 
C 161.02 170.01 144.55 196.40 155.08 216.92 C 165.61 237.44 194.11 238.48 207.23 220.23 C 220.35 201.98 206.89 173.82 185.00 172.00
M 185.00 187.00 
C 203.67 190.18 199.92 220.71 180.00 218.00 C 160.08 215.29 164.69 183.54 185.00 187.00 Z"/>
</g>
<g fill="None" fill-opacity="0.0" stroke="#000000" stroke-opacity="1.00" stroke-width="0.3"><path d="
M 382.00 172.00 
C 343.55 165.11 331.06 223.66 369.78 232.22 C 408.50 240.79 420.18 178.84 382.00 172.00
M 380.00 187.00 
C 399.53 191.84 390.70 223.73 371.33 217.67 C 351.96 211.61 361.26 182.36 380.00 187.00 Z"/>
</g>
<g fill="None" fill-opacity="0.0" stroke="#000000" stroke-opacity="1.00" stroke-width="0.3"><path d="
M 291.00 179.00 
C 289.70 186.28 290.96 194.54 291.00 202.00 C 291.04 209.46 289.75 218.61 291.00 226.00
C 292.06 229.48 292.39 230.67 296.00 232.00
C 300.62 233.02 307.26 232.26 312.00 232.00
C 325.17 231.29 332.26 221.79 335.22 210.22 C 338.18 198.65 333.50 183.83 324.75 177.25 C 315.99 170.68 294.22 168.82 291.00 179.00
M 312.00 217.00 
C 310.12 217.57 307.52 218.63 305.00 218.00
C 305.67 208.17 303.67 197.01 306.00 188.00
C 311.96 183.83 321.09 192.06 320.98 199.02 C 320.86 205.99 320.30 214.48 312.00 217.00 Z"/>
</g>
<g fill="None" fill-opacity="0.0" stroke="#6A6B6B" stroke-opacity="1.00" stroke-width="0.3"><path d="
M 291.00 226.00 
C 289.75 218.61 291.04 209.46 291.00 202.00 C 290.96 194.54 289.70 186.28 291.00 179.00
C 288.88 185.72 290.06 195.45 290.00 203.00 C 289.94 210.55 288.97 219.30 291.00 226.00 Z"/>
</g>
<g fill="None" fill-opacity="0.0" stroke="#F0F3F4" stroke-opacity="1.00" stroke-width="0.3"><path d="
M 185.00 187.00 
C 164.69 183.54 160.08 215.29 180.00 218.00 C 199.92 220.71 203.67 190.18 185.00 187.00 Z"/>
</g>
<g fill="None" fill-opacity="0.0" stroke="#F0F3F4" stroke-opacity="1.00" stroke-width="0.3"><path d="
M 380.00 187.00 
C 361.26 182.36 351.96 211.61 371.33 217.67 C 390.70 223.73 399.53 191.84 380.00 187.00 Z"/>
</g>
<g fill="None" fill-opacity="0.0" stroke="#858687" stroke-opacity="1.00" stroke-width="0.3"><path d="
M 312.00 217.00 
C 310.02 217.22 307.98 216.84 306.00 217.00
C 306.00 207.33 306.00 197.67 306.00 188.00
C 303.67 197.01 305.67 208.17 305.00 218.00
C 307.52 218.63 310.12 217.57 312.00 217.00 Z"/>
</g>
<g fill="None" fill-opacity="0.0" stroke="#F2F5F6" stroke-opacity="1.00" stroke-width="0.3"><path d="
M 312.00 217.00 
C 320.30 214.48 320.86 205.99 320.98 199.02 C 321.09 192.06 311.96 183.83 306.00 188.00
C 306.00 197.67 306.00 207.33 306.00 217.00
C 307.98 216.84 310.02 217.22 312.00 217.00 Z"/>
</g>
<g fill="None" fill-opacity="0.0" stroke="#000000" stroke-opacity="1.00" stroke-width="0.3"><path d="
M 267.00 195.00 
C 258.52 193.03 246.49 196.00 238.03 195.03 C 229.56 194.05 226.86 209.24 236.00 210.00 C 245.14 210.76 255.65 209.27 265.00 210.00 C 274.34 210.72 275.59 197.00 267.00 195.00 Z"/>
</g>
<g fill="None" fill-opacity="0.0" stroke="#676869" stroke-opacity="1.00" stroke-width="0.3"><path d="
M 312.00 232.00 
C 307.26 232.26 300.62 233.02 296.00 232.00
C 300.84 233.78 307.14 232.79 312.00 232.00 Z"/>
</g>
<g fill="None" fill-opacity="0.0" stroke="#000000" stroke-opacity="1.00" stroke-width="0.3"><path d="
M 162.00 266.00 
C 147.87 263.07 131.59 266.61 117.07 266.07 C 102.56 265.54 105.49 289.93 106.00 299.00 C 106.51 308.07 101.26 331.93 116.00 333.00 C 130.74 334.07 146.09 333.45 160.98 332.98 C 175.86 332.50 172.21 310.36 172.00 300.00 C 171.79 289.64 176.25 268.95 162.00 266.00
M 157.00 318.00 
C 152.97 320.82 143.97 316.53 139.00 318.00 C 134.03 319.47 126.23 316.90 121.00 318.00
C 121.00 305.67 121.00 293.33 121.00 281.00
C 133.00 281.00 145.00 281.00 157.00 281.00
C 159.74 282.92 158.13 295.42 158.00 299.00 C 157.87 302.58 159.90 315.97 157.00 318.00 Z"/>
</g>
<g fill="None" fill-opacity="0.0" stroke="#000000" stroke-opacity="1.00" stroke-width="0.3"><path d="
M 400.00 274.00 
C 388.73 271.38 375.53 275.32 364.00 274.00 C 352.47 272.68 340.60 274.81 329.00 274.00 C 317.40 273.19 305.62 274.85 294.00 274.00 C 282.38 273.15 269.51 275.43 258.00 274.00 C 246.49 272.57 234.15 277.04 223.00 274.00 C 211.85 270.96 203.32 286.14 215.00 289.00 C 226.68 291.86 239.27 287.55 251.00 289.00 C 262.73 290.45 274.30 288.08 286.00 289.00 C 297.70 289.92 309.31 288.00 321.00 289.00 C 332.69 290.00 345.41 287.28 357.00 289.00 C 368.59 290.72 380.69 285.31 392.00 289.00 C 403.31 292.69 412.77 276.97 400.00 274.00 Z"/>
</g>
<g fill="None" fill-opacity="0.0" stroke="#7BC0FB" stroke-opacity="1.00" stroke-width="0.3"><path d="
M 157.00 318.00 
C 157.00 305.67 157.00 293.33 157.00 281.00
C 145.00 281.00 133.00 281.00 121.00 281.00
C 121.00 293.33 121.00 305.67 121.00 318.00
C 126.23 316.90 134.03 319.47 139.00 318.00 C 143.97 316.53 152.97 320.82 157.00 318.00 Z"/>
</g>
<g fill="None" fill-opacity="0.0" stroke="#264965" stroke-opacity="1.00" stroke-width="0.3"><path d="
M 157.00 318.00 
C 159.90 315.97 157.87 302.58 158.00 299.00 C 158.13 295.42 159.74 282.92 157.00 281.00
C 157.00 293.33 157.00 305.67 157.00 318.00 Z"/>
</g>
<g fill="None" fill-opacity="0.0" stroke="#000000" stroke-opacity="1.00" stroke-width="0.3"><path d="
M 345.00 310.00 
C 334.95 306.65 320.61 311.17 310.00 310.00 C 299.39 308.83 285.47 309.77 275.00 310.00 C 264.53 310.23 250.59 308.08 241.00 310.00 C 231.41 311.92 215.45 303.49 209.93 313.93 C 204.41 324.36 222.98 326.36 232.00 325.00 C 241.02 323.64 255.75 325.08 266.00 325.00 C 276.25 324.92 290.43 323.96 301.00 325.00 C 311.57 326.04 325.83 322.14 336.00 325.00 C 346.17 327.86 355.89 313.63 345.00 310.00 Z"/>
</g>
<g fill="None" fill-opacity="0.0" stroke="#000000" stroke-opacity="1.00" stroke-width="0.3"><path d="
M 164.00 372.00 
C 149.38 368.38 135.20 374.44 120.00 372.00 C 104.80 369.56 103.94 391.42 106.00 402.00 C 108.06 412.58 99.72 434.01 114.33 437.67 C 128.94 441.33 142.48 435.27 158.00 438.00 C 173.52 440.73 173.96 418.42 172.00 408.00 C 170.04 397.58 177.85 375.43 164.00 372.00
M 121.00 423.00 
C 118.18 418.97 122.47 409.97 121.00 405.00 C 119.53 400.03 122.10 392.23 121.00 387.00
C 133.00 387.00 145.00 387.00 157.00 387.00
C 159.80 388.96 158.07 401.37 158.00 405.00 C 157.93 408.63 159.88 420.58 157.22 423.22 C 154.56 425.87 142.67 423.93 139.00 424.00 C 135.33 424.07 122.95 425.79 121.00 423.00 Z"/>
</g>
<g fill="None" fill-opacity="0.0" stroke="#000000" stroke-opacity="1.00" stroke-width="0.3"><path d="
M 402.00 380.00 
C 392.43 376.47 379.27 381.54 369.00 380.00 C 358.73 378.46 346.47 380.58 336.00 380.00 C 325.53 379.42 314.44 379.93 304.00 380.00 C 293.56 380.07 281.15 379.29 271.00 380.00 C 260.85 380.71 247.30 378.18 238.00 380.00 C 228.70 381.82 215.15 373.95 209.93 383.93 C 204.70 393.91 221.23 396.54 230.00 395.00 C 238.77 393.46 252.07 395.56 262.00 395.00 C 271.93 394.44 284.60 395.02 295.00 395.00 C 305.40 394.98 317.54 394.50 328.00 395.00 C 338.46 395.50 349.72 393.58 360.00 395.00 C 370.28 396.42 383.25 391.84 393.00 395.00 C 402.75 398.16 412.16 383.75 402.00 380.00 Z"/>
</g>
<g fill="None" fill-opacity="0.0" stroke="#7CC3FE" stroke-opacity="1.00" stroke-width="0.3"><path d="
M 121.00 423.00 
C 133.00 423.00 145.00 423.00 157.00 423.00
C 157.00 411.00 157.00 399.00 157.00 387.00
C 145.00 387.00 133.00 387.00 121.00 387.00
C 122.10 392.23 119.53 400.03 121.00 405.00 C 122.47 409.97 118.18 418.97 121.00 423.00 Z"/>
</g>
<g fill="None" fill-opacity="0.0" stroke="#2C4B66" stroke-opacity="1.00" stroke-width="0.3"><path d="
M 121.00 423.00 
C 122.95 425.79 135.33 424.07 139.00 424.00 C 142.67 423.93 154.56 425.87 157.22 423.22 C 159.88 420.58 157.93 408.63 158.00 405.00 C 158.07 401.37 159.80 388.96 157.00 387.00
C 157.00 399.00 157.00 411.00 157.00 423.00
C 145.00 423.00 133.00 423.00 121.00 423.00 Z"/>
</g>
<g fill="None" fill-opacity="0.0" stroke="#626364" stroke-opacity="1.00" stroke-width="0.3"><path d="
M 215.00 416.00 
C 228.38 413.03 244.24 416.81 258.00 416.00 C 271.76 415.19 287.24 415.19 301.00 416.00 C 314.76 416.81 330.62 413.04 344.00 416.00
C 331.91 411.54 314.49 415.84 301.00 415.00 C 287.51 414.16 270.43 414.25 257.00 415.00 C 243.57 415.75 227.02 411.56 215.00 416.00 Z"/>
</g>
<g fill="None" fill-opacity="0.0" stroke="#000000" stroke-opacity="1.00" stroke-width="0.3"><path d="
M 344.00 416.00 
C 330.62 413.04 314.76 416.81 301.00 416.00 C 287.24 415.19 271.76 415.19 258.00 416.00 C 244.24 416.81 228.38 413.03 215.00 416.00
C 200.81 421.24 215.24 433.17 226.00 430.00 C 236.76 426.83 250.73 430.92 262.00 430.00 C 273.27 429.08 286.71 429.29 298.00 430.00 C 309.29 430.71 323.16 427.18 334.00 430.00 C 344.84 432.82 357.55 421.00 344.00 416.00 Z"/>
</g>
<g fill="#000000" fill-opacity="0.01" stroke="None">
<path d="
M 0.00 512.00 
L 86.00 512.00
C 58.10 507.32 60.16 487.71 61.00 457.00 C 61.84 426.29 60.68 389.06 61.00 357.00 C 61.32 324.94 60.98 288.41 61.00 256.00 C 61.02 223.59 61.26 188.05 61.00 156.00 C 60.74 123.95 61.73 86.82 61.00 56.00 C 60.27 25.18 57.65 4.55 86.00 0.00
L 0.00 0.00
L 0.00 512.00 Z"/>
</g>
<g fill="#000000" fill-opacity="1.00" stroke="None">
<path d="
M 86.00 512.00 
L 432.00 512.00
C 438.10 508.74 444.45 505.27 448.39 497.25 C 452.34 489.22 451.10 477.13 451.00 464.00 C 450.90 450.87 451.14 433.40 451.00 420.00 C 450.86 406.60 451.27 389.92 451.00 377.00 C 450.73 364.08 451.58 344.46 451.00 333.00 C 450.42 321.54 454.89 302.66 445.00 303.00
C 431.64 303.46 438.07 324.90 437.00 335.00 C 435.93 345.10 437.74 365.33 437.00 376.00 C 436.26 386.67 437.33 387.52 437.00 396.00 C 436.67 404.48 437.15 408.50 437.00 416.00 C 436.85 423.50 437.07 429.94 437.00 437.00 C 436.93 444.06 437.04 450.29 437.00 457.00 C 436.96 463.71 437.04 470.62 437.00 477.00 C 436.96 483.38 437.46 489.27 432.75 493.75 C 428.05 498.23 422.33 496.87 416.00 497.00 C 409.67 497.13 402.55 496.94 396.00 497.00 C 389.45 497.06 382.71 496.97 376.00 497.00 C 369.29 497.03 361.76 496.99 355.00 497.00 C 348.24 497.01 341.75 496.99 335.00 497.00 C 328.25 497.01 321.79 497.00 315.00 497.00 C 308.21 497.00 300.79 497.00 294.00 497.00 C 287.21 497.00 280.76 497.00 274.00 497.00 C 267.24 497.00 260.79 497.00 254.00 497.00 C 247.21 497.00 239.79 497.00 233.00 497.00 C 226.21 497.00 219.74 497.00 213.00 497.00 C 206.26 497.00 199.73 497.00 193.00 497.00 C 186.27 497.00 179.77 496.99 173.00 497.00 C 166.23 497.01 158.76 496.98 152.00 497.00 C 145.24 497.02 138.68 496.96 132.00 497.00 C 125.32 497.04 118.60 496.90 112.00 497.00 C 105.40 497.10 97.39 496.80 91.00 497.00 C 84.61 497.20 80.43 496.27 77.08 490.92 C 73.74 485.57 75.18 479.49 75.00 473.00 C 74.82 466.51 75.09 458.64 75.00 452.00 C 74.91 445.36 75.04 438.67 75.00 432.00 C 74.96 425.33 75.02 418.71 75.00 412.00 C 74.98 405.29 75.01 398.78 75.00 392.00 C 74.99 385.22 75.00 377.79 75.00 371.00 C 75.00 364.21 75.00 357.76 75.00 351.00 C 75.00 344.24 75.00 337.80 75.00 331.00 C 75.00 324.20 75.00 316.80 75.00 310.00 C 75.00 303.20 75.00 296.76 75.00 290.00 C 75.00 283.24 75.00 276.79 75.00 270.00 C 75.00 263.21 75.00 255.79 75.00 249.00 C 75.00 242.21 75.00 235.74 75.00 229.00 C 75.00 222.26 75.00 215.74 75.00 209.00 C 75.00 202.26 75.00 195.78 75.00 189.00 C 75.00 182.22 75.00 174.79 75.00 168.00 C 75.00 161.21 75.00 154.75 75.00 148.00 C 75.00 141.25 74.99 134.76 75.00 128.00 C 75.01 121.24 74.99 113.73 75.00 107.00 C 75.01 100.27 74.97 93.60 75.00 87.00 C 75.03 80.40 74.93 73.42 75.00 67.00 C 75.07 60.58 74.85 52.00 75.00 46.00 C 75.15 40.00 74.65 30.91 75.00 26.00 C 75.35 21.09 79.90 15.17 84.22 15.22 C 88.55 15.28 101.52 12.56 105.00 15.00
C 108.36 17.35 105.28 30.00 106.00 34.00
C 107.17 37.70 108.58 40.00 113.00 40.00
C 117.39 40.00 118.82 37.73 120.00 34.00
C 120.73 29.95 117.64 17.35 121.00 15.00
C 124.37 12.64 133.56 15.51 138.00 15.00 C 142.44 14.49 151.51 14.27 156.00 15.00 C 160.49 15.73 170.48 12.53 174.00 15.00
C 177.84 17.69 174.00 29.03 175.00 34.00 C 176.00 38.97 174.70 48.51 175.00 54.00 C 175.30 59.49 175.19 68.76 175.00 74.00 C 174.81 79.24 176.65 91.09 173.00 91.00
C 163.94 90.78 157.08 76.03 147.00 78.00 C 136.92 79.97 129.93 87.24 121.00 92.00
C 118.06 84.36 121.50 74.36 120.00 66.00
C 118.83 62.30 117.42 60.00 113.00 60.00
C 108.61 60.00 107.18 62.27 106.00 66.00
C 104.36 75.14 104.86 88.77 106.00 98.00
C 111.63 120.73 136.36 100.73 147.00 93.00
C 158.90 99.61 182.92 121.28 189.00 98.00
C 189.74 91.34 188.47 83.60 189.00 77.00 C 189.53 70.40 188.33 62.27 189.00 56.00 C 189.67 49.73 187.74 40.45 189.00 35.00 C 190.26 29.55 185.84 17.91 190.00 15.00
C 194.70 11.71 205.04 16.48 211.00 15.00 C 216.96 13.52 225.47 15.67 232.00 15.00 C 238.53 14.33 246.21 15.30 253.00 15.00 C 259.79 14.70 267.08 15.14 274.00 15.00 C 280.92 14.86 288.01 15.06 295.00 15.00 C 301.99 14.94 308.96 15.03 316.00 15.00 C 323.04 14.97 329.87 15.01 337.00 15.00 C 344.13 14.99 351.82 15.01 359.00 15.00
C 358.51 28.96 359.65 46.39 359.00 60.00 C 358.35 73.61 358.34 88.89 374.00 91.00
C 380.55 91.67 388.58 90.29 395.00 91.00 C 401.42 91.71 410.09 89.79 416.00 91.00 C 421.91 92.21 432.02 88.02 436.00 92.00
C 440.66 96.66 435.56 109.05 437.00 116.00 C 438.44 122.95 436.35 133.31 437.00 141.00 C 437.65 148.69 436.71 157.98 437.00 166.00 C 437.29 174.02 436.88 182.87 437.00 191.00 C 437.12 199.13 436.96 207.90 437.00 216.00 C 437.04 224.10 437.01 233.08 437.00 241.00 C 436.99 248.92 437.07 258.54 437.00 266.00 C 436.93 273.46 435.29 283.88 445.00 284.00
C 454.90 284.12 450.44 266.64 451.00 255.00 C 451.56 243.36 450.70 224.17 451.00 211.00 C 451.30 197.83 450.77 181.87 451.00 168.00 C 451.23 154.13 450.68 138.12 451.00 124.00 C 451.32 109.88 449.94 94.71 452.00 81.00
C 422.46 56.73 396.59 22.64 368.00 0.00
L 86.00 0.00
C 57.65 4.55 60.27 25.18 61.00 56.00 C 61.73 86.82 60.74 123.95 61.00 156.00 C 61.26 188.05 61.02 223.59 61.00 256.00 C 60.98 288.41 61.32 324.94 61.00 357.00 C 60.68 389.06 61.84 426.29 61.00 457.00 C 60.16 487.71 58.10 507.32 86.00 512.00
M 425.00 76.00 
C 424.97 77.29 407.16 77.79 402.00 77.00 C 396.84 76.21 380.56 79.29 376.00 76.00
C 370.25 71.85 375.48 58.97 374.00 52.00 C 372.52 45.03 375.11 33.39 374.00 26.00
C 391.35 42.14 408.88 58.51 425.00 76.00 Z"/>
</g>
<g fill="#000000" fill-opacity="0.01" stroke="None">
<path d="
M 445.00 284.00 
C 443.82 287.64 443.82 299.36 445.00 303.00
C 454.89 302.66 450.42 321.54 451.00 333.00 C 451.58 344.46 450.73 364.08 451.00 377.00 C 451.27 389.92 450.86 406.60 451.00 420.00 C 451.14 433.40 450.90 450.87 451.00 464.00 C 451.10 477.13 452.34 489.22 448.39 497.25 C 444.45 505.27 438.10 508.74 432.00 512.00
L 512.00 512.00
L 512.00 0.00
L 368.00 0.00
C 396.59 22.64 422.46 56.73 452.00 81.00
C 449.94 94.71 451.32 109.88 451.00 124.00 C 450.68 138.12 451.23 154.13 451.00 168.00 C 450.77 181.87 451.30 197.83 451.00 211.00 C 450.70 224.17 451.56 243.36 451.00 255.00 C 450.44 266.64 454.90 284.12 445.00 284.00 Z"/>
</g>
<g fill="#F3F6F7" fill-opacity="1.00" stroke="None">
<path d="
M 445.00 303.00 
C 443.82 299.36 443.82 287.64 445.00 284.00
C 435.29 283.88 436.93 273.46 437.00 266.00 C 437.07 258.54 436.99 248.92 437.00 241.00 C 437.01 233.08 437.04 224.10 437.00 216.00 C 436.96 207.90 437.12 199.13 437.00 191.00 C 436.88 182.87 437.29 174.02 437.00 166.00 C 436.71 157.98 437.65 148.69 437.00 141.00 C 436.35 133.31 438.44 122.95 437.00 116.00 C 435.56 109.05 440.66 96.66 436.00 92.00
C 431.39 88.77 420.86 93.39 415.00 92.00 C 409.14 90.61 400.35 92.46 394.00 92.00 C 387.65 91.54 379.77 92.28 374.00 91.00
C 358.34 88.89 358.35 73.61 359.00 60.00 C 359.65 46.39 358.51 28.96 359.00 15.00
C 351.82 15.01 344.13 14.99 337.00 15.00 C 329.87 15.01 323.04 14.97 316.00 15.00 C 308.96 15.03 301.99 14.94 295.00 15.00 C 288.01 15.06 280.92 14.86 274.00 15.00 C 267.08 15.14 259.79 14.70 253.00 15.00 C 246.21 15.30 238.53 14.33 232.00 15.00 C 225.47 15.67 216.96 13.52 211.00 15.00 C 205.04 16.48 194.70 11.71 190.00 15.00
C 186.58 41.86 195.01 72.18 189.00 98.00
C 182.92 121.28 158.90 99.61 147.00 93.00
C 136.36 100.73 111.63 120.73 106.00 98.00
C 103.94 89.68 103.41 74.18 106.00 66.00
C 107.18 62.27 108.61 60.00 113.00 60.00
C 113.00 53.33 113.00 46.67 113.00 40.00
C 108.58 40.00 107.17 37.70 106.00 34.00
C 104.24 28.42 105.24 21.30 105.00 15.00
C 101.52 12.56 88.55 15.28 84.22 15.22 C 79.90 15.17 75.35 21.09 75.00 26.00 C 74.65 30.91 75.15 40.00 75.00 46.00 C 74.85 52.00 75.07 60.58 75.00 67.00 C 74.93 73.42 75.03 80.40 75.00 87.00 C 74.97 93.60 75.01 100.27 75.00 107.00 C 74.99 113.73 75.01 121.24 75.00 128.00 C 74.99 134.76 75.00 141.25 75.00 148.00 C 75.00 154.75 75.00 161.21 75.00 168.00 C 75.00 174.79 75.00 182.22 75.00 189.00 C 75.00 195.78 75.00 202.26 75.00 209.00 C 75.00 215.74 75.00 222.26 75.00 229.00 C 75.00 235.74 75.00 242.21 75.00 249.00 C 75.00 255.79 75.00 263.21 75.00 270.00 C 75.00 276.79 75.00 283.24 75.00 290.00 C 75.00 296.76 75.00 303.20 75.00 310.00 C 75.00 316.80 75.00 324.20 75.00 331.00 C 75.00 337.80 75.00 344.24 75.00 351.00 C 75.00 357.76 75.00 364.21 75.00 371.00 C 75.00 377.79 74.99 385.22 75.00 392.00 C 75.01 398.78 74.98 405.29 75.00 412.00 C 75.02 418.71 74.96 425.33 75.00 432.00 C 75.04 438.67 74.91 445.36 75.00 452.00 C 75.09 458.64 74.82 466.51 75.00 473.00 C 75.18 479.49 73.74 485.57 77.08 490.92 C 80.43 496.27 84.61 497.20 91.00 497.00 C 97.39 496.80 105.40 497.10 112.00 497.00 C 118.60 496.90 125.32 497.04 132.00 497.00 C 138.68 496.96 145.24 497.02 152.00 497.00 C 158.76 496.98 166.23 497.01 173.00 497.00 C 179.77 496.99 186.27 497.00 193.00 497.00 C 199.73 497.00 206.26 497.00 213.00 497.00 C 219.74 497.00 226.21 497.00 233.00 497.00 C 239.79 497.00 247.21 497.00 254.00 497.00 C 260.79 497.00 267.24 497.00 274.00 497.00 C 280.76 497.00 287.21 497.00 294.00 497.00 C 300.79 497.00 308.21 497.00 315.00 497.00 C 321.79 497.00 328.25 497.01 335.00 497.00 C 341.75 496.99 348.24 497.01 355.00 497.00 C 361.76 496.99 369.29 497.03 376.00 497.00 C 382.71 496.97 389.45 497.06 396.00 497.00 C 402.55 496.94 409.67 497.13 416.00 497.00 C 422.33 496.87 428.05 498.23 432.75 493.75 C 437.46 489.27 436.96 483.38 437.00 477.00 C 437.04 470.62 436.96 463.71 437.00 457.00 C 437.04 450.29 436.93 444.06 437.00 437.00 C 437.07 429.94 436.85 423.50 437.00 416.00 C 437.15 408.50 436.67 404.48 437.00 396.00 C 437.33 387.52 436.26 386.67 437.00 376.00 C 437.74 365.33 435.93 345.10 437.00 335.00 C 438.07 324.90 431.64 303.46 445.00 303.00
M 133.00 187.00 
C 134.46 199.66 131.05 209.00 133.00 222.00 C 134.95 235.00 117.15 236.27 118.00 223.00 C 118.86 209.73 117.36 199.95 118.00 187.00
C 108.12 193.06 100.58 174.49 110.70 172.70 C 120.81 170.91 130.91 171.00 141.07 172.93 C 151.23 174.85 143.06 193.02 133.00 187.00
M 185.00 172.00 
C 206.89 173.82 220.35 201.98 207.23 220.23 C 194.11 238.48 165.61 237.44 155.08 216.92 C 144.55 196.40 161.02 170.01 185.00 172.00
M 382.00 172.00 
C 420.18 178.84 408.50 240.79 369.78 232.22 C 331.06 223.66 343.55 165.11 382.00 172.00
M 312.00 232.00 
C 307.14 232.79 300.84 233.78 296.00 232.00
C 292.39 230.67 292.06 229.48 291.00 226.00
C 288.97 219.30 289.94 210.55 290.00 203.00 C 290.06 195.45 288.88 185.72 291.00 179.00
C 294.22 168.82 315.99 170.68 324.75 177.25 C 333.50 183.83 338.18 198.65 335.22 210.22 C 332.26 221.79 325.17 231.29 312.00 232.00
M 267.00 195.00 
C 275.59 197.00 274.34 210.72 265.00 210.00 C 255.65 209.27 245.14 210.76 236.00 210.00 C 226.86 209.24 229.56 194.05 238.03 195.03 C 246.49 196.00 258.52 193.03 267.00 195.00
M 162.00 266.00 
C 176.25 268.95 171.79 289.64 172.00 300.00 C 172.21 310.36 175.86 332.50 160.98 332.98 C 146.09 333.45 130.74 334.07 116.00 333.00 C 101.26 331.93 106.51 308.07 106.00 299.00 C 105.49 289.93 102.56 265.54 117.07 266.07 C 131.59 266.61 147.87 263.07 162.00 266.00
M 400.00 274.00 
C 412.77 276.97 403.31 292.69 392.00 289.00 C 380.69 285.31 368.59 290.72 357.00 289.00 C 345.41 287.28 332.69 290.00 321.00 289.00 C 309.31 288.00 297.70 289.92 286.00 289.00 C 274.30 288.08 262.73 290.45 251.00 289.00 C 239.27 287.55 226.68 291.86 215.00 289.00 C 203.32 286.14 211.85 270.96 223.00 274.00 C 234.15 277.04 246.49 272.57 258.00 274.00 C 269.51 275.43 282.38 273.15 294.00 274.00 C 305.62 274.85 317.40 273.19 329.00 274.00 C 340.60 274.81 352.47 272.68 364.00 274.00 C 375.53 275.32 388.73 271.38 400.00 274.00
M 345.00 310.00 
C 355.89 313.63 346.17 327.86 336.00 325.00 C 325.83 322.14 311.57 326.04 301.00 325.00 C 290.43 323.96 276.25 324.92 266.00 325.00 C 255.75 325.08 241.02 323.64 232.00 325.00 C 222.98 326.36 204.41 324.36 209.93 313.93 C 215.45 303.49 231.41 311.92 241.00 310.00 C 250.59 308.08 264.53 310.23 275.00 310.00 C 285.47 309.77 299.39 308.83 310.00 310.00 C 320.61 311.17 334.95 306.65 345.00 310.00
M 164.00 372.00 
C 177.85 375.43 170.04 397.58 172.00 408.00 C 173.96 418.42 173.52 440.73 158.00 438.00 C 142.48 435.27 128.94 441.33 114.33 437.67 C 99.72 434.01 108.06 412.58 106.00 402.00 C 103.94 391.42 104.80 369.56 120.00 372.00 C 135.20 374.44 149.38 368.38 164.00 372.00
M 402.00 380.00 
C 412.16 383.75 402.75 398.16 393.00 395.00 C 383.25 391.84 370.28 396.42 360.00 395.00 C 349.72 393.58 338.46 395.50 328.00 395.00 C 317.54 394.50 305.40 394.98 295.00 395.00 C 284.60 395.02 271.93 394.44 262.00 395.00 C 252.07 395.56 238.77 393.46 230.00 395.00 C 221.23 396.54 204.70 393.91 209.93 383.93 C 215.15 373.95 228.70 381.82 238.00 380.00 C 247.30 378.18 260.85 380.71 271.00 380.00 C 281.15 379.29 293.56 380.07 304.00 380.00 C 314.44 379.93 325.53 379.42 336.00 380.00 C 346.47 380.58 358.73 378.46 369.00 380.00 C 379.27 381.54 392.43 376.47 402.00 380.00
M 344.00 416.00 
C 357.55 421.00 344.84 432.82 334.00 430.00 C 323.16 427.18 309.29 430.71 298.00 430.00 C 286.71 429.29 273.27 429.08 262.00 430.00 C 250.73 430.92 236.76 426.83 226.00 430.00 C 215.24 433.17 200.81 421.24 215.00 416.00
C 227.02 411.56 243.57 415.75 257.00 415.00 C 270.43 414.25 287.51 414.16 301.00 415.00 C 314.49 415.84 331.91 411.54 344.00 416.00 Z"/>
</g>
<g fill="#8A8C8D" fill-opacity="1.00" stroke="None">
<path d="
M 106.00 34.00 
C 105.28 30.00 108.36 17.35 105.00 15.00
C 105.24 21.30 104.24 28.42 106.00 34.00 Z"/>
</g>
<g fill="#722C31" fill-opacity="1.00" stroke="None">
<path d="
M 120.00 34.00 
C 121.76 28.42 120.76 21.30 121.00 15.00
C 117.64 17.35 120.73 29.95 120.00 34.00 Z"/>
</g>
<g fill="#FD5D68" fill-opacity="1.00" stroke="None">
<path d="
M 120.00 34.00 
C 118.82 37.73 117.39 40.00 113.00 40.00
C 113.00 46.67 113.00 53.33 113.00 60.00
C 117.42 60.00 118.83 62.30 120.00 66.00
C 122.44 73.71 120.25 83.52 121.00 92.00
C 129.93 87.24 136.92 79.97 147.00 78.00 C 157.08 76.03 163.94 90.78 173.00 91.00
C 175.33 66.57 173.34 40.18 174.00 15.00
C 170.48 12.53 160.49 15.73 156.00 15.00 C 151.51 14.27 142.44 14.49 138.00 15.00 C 133.56 15.51 124.37 12.64 121.00 15.00
C 120.76 21.30 121.76 28.42 120.00 34.00 Z"/>
</g>
<g fill="#84252C" fill-opacity="1.00" stroke="None">
<path d="
M 173.00 91.00 
C 176.65 91.09 174.81 79.24 175.00 74.00 C 175.19 68.76 175.30 59.49 175.00 54.00 C 174.70 48.51 176.00 38.97 175.00 34.00 C 174.00 29.03 177.84 17.69 174.00 15.00
C 173.34 40.18 175.33 66.57 173.00 91.00 Z"/>
</g>
<g fill="#767878" fill-opacity="1.00" stroke="None">
<path d="
M 189.00 98.00 
C 195.01 72.18 186.58 41.86 190.00 15.00
C 185.84 17.91 190.26 29.55 189.00 35.00 C 187.74 40.45 189.67 49.73 189.00 56.00 C 188.33 62.27 189.53 70.40 189.00 77.00 C 188.47 83.60 189.74 91.34 189.00 98.00 Z"/>
</g>
<g fill="#CBD8E0" fill-opacity="1.00" stroke="None">
<path d="
M 376.00 76.00 
C 382.61 79.27 392.74 73.90 400.00 76.00 C 407.26 78.10 417.73 73.62 425.00 76.00
C 408.88 58.51 391.35 42.14 374.00 26.00
C 375.11 33.39 372.52 45.03 374.00 52.00 C 375.48 58.97 370.25 71.85 376.00 76.00 Z"/>
</g>
<g fill="#8A8C8C" fill-opacity="1.00" stroke="None">
<path d="
M 106.00 98.00 
C 104.86 88.77 104.36 75.14 106.00 66.00
C 103.41 74.18 103.94 89.68 106.00 98.00 Z"/>
</g>
<g fill="#712C31" fill-opacity="1.00" stroke="None">
<path d="
M 121.00 92.00 
C 120.25 83.52 122.44 73.71 120.00 66.00
C 121.50 74.36 118.06 84.36 121.00 92.00 Z"/>
</g>
<g fill="#757D83" fill-opacity="1.00" stroke="None">
<path d="
M 425.00 76.00 
C 417.73 73.62 407.26 78.10 400.00 76.00 C 392.74 73.90 382.61 79.27 376.00 76.00
C 380.56 79.29 396.84 76.21 402.00 77.00 C 407.16 77.79 424.97 77.29 425.00 76.00 Z"/>
</g>
<g fill="#616263" fill-opacity="1.00" stroke="None">
<path d="
M 436.00 92.00 
C 432.02 88.02 421.91 92.21 416.00 91.00 C 410.09 89.79 401.42 91.71 395.00 91.00 C 388.58 90.29 380.55 91.67 374.00 91.00
C 379.77 92.28 387.65 91.54 394.00 92.00 C 400.35 92.46 409.14 90.61 415.00 92.00 C 420.86 93.39 431.39 88.77 436.00 92.00 Z"/>
</g>
<g fill="#000000" fill-opacity="1.00" stroke="None">
<path d="
M 133.00 187.00 
C 143.06 193.02 151.23 174.85 141.07 172.93 C 130.91 171.00 120.81 170.91 110.70 172.70 C 100.58 174.49 108.12 193.06 118.00 187.00
C 117.36 199.95 118.86 209.73 118.00 223.00 C 117.15 236.27 134.95 235.00 133.00 222.00 C 131.05 209.00 134.46 199.66 133.00 187.00 Z"/>
</g>
<g fill="#000000" fill-opacity="1.00" stroke="None">
<path d="
M 185.00 172.00 
C 161.02 170.01 144.55 196.40 155.08 216.92 C 165.61 237.44 194.11 238.48 207.23 220.23 C 220.35 201.98 206.89 173.82 185.00 172.00
M 185.00 187.00 
C 203.67 190.18 199.92 220.71 180.00 218.00 C 160.08 215.29 164.69 183.54 185.00 187.00 Z"/>
</g>
<g fill="#000000" fill-opacity="1.00" stroke="None">
<path d="
M 382.00 172.00 
C 343.55 165.11 331.06 223.66 369.78 232.22 C 408.50 240.79 420.18 178.84 382.00 172.00
M 380.00 187.00 
C 399.53 191.84 390.70 223.73 371.33 217.67 C 351.96 211.61 361.26 182.36 380.00 187.00 Z"/>
</g>
<g fill="#000000" fill-opacity="1.00" stroke="None">
<path d="
M 291.00 179.00 
C 289.70 186.28 290.96 194.54 291.00 202.00 C 291.04 209.46 289.75 218.61 291.00 226.00
C 292.06 229.48 292.39 230.67 296.00 232.00
C 300.62 233.02 307.26 232.26 312.00 232.00
C 325.17 231.29 332.26 221.79 335.22 210.22 C 338.18 198.65 333.50 183.83 324.75 177.25 C 315.99 170.68 294.22 168.82 291.00 179.00
M 312.00 217.00 
C 310.12 217.57 307.52 218.63 305.00 218.00
C 305.67 208.17 303.67 197.01 306.00 188.00
C 311.96 183.83 321.09 192.06 320.98 199.02 C 320.86 205.99 320.30 214.48 312.00 217.00 Z"/>
</g>
<g fill="#6A6B6B" fill-opacity="1.00" stroke="None">
<path d="
M 291.00 226.00 
C 289.75 218.61 291.04 209.46 291.00 202.00 C 290.96 194.54 289.70 186.28 291.00 179.00
C 288.88 185.72 290.06 195.45 290.00 203.00 C 289.94 210.55 288.97 219.30 291.00 226.00 Z"/>
</g>
<g fill="#F0F3F4" fill-opacity="1.00" stroke="None">
<path d="
M 185.00 187.00 
C 164.69 183.54 160.08 215.29 180.00 218.00 C 199.92 220.71 203.67 190.18 185.00 187.00 Z"/>
</g>
<g fill="#F0F3F4" fill-opacity="1.00" stroke="None">
<path d="
M 380.00 187.00 
C 361.26 182.36 351.96 211.61 371.33 217.67 C 390.70 223.73 399.53 191.84 380.00 187.00 Z"/>
</g>
<g fill="#858687" fill-opacity="1.00" stroke="None">
<path d="
M 312.00 217.00 
C 310.02 217.22 307.98 216.84 306.00 217.00
C 306.00 207.33 306.00 197.67 306.00 188.00
C 303.67 197.01 305.67 208.17 305.00 218.00
C 307.52 218.63 310.12 217.57 312.00 217.00 Z"/>
</g>
<g fill="#F2F5F6" fill-opacity="1.00" stroke="None">
<path d="
M 312.00 217.00 
C 320.30 214.48 320.86 205.99 320.98 199.02 C 321.09 192.06 311.96 183.83 306.00 188.00
C 306.00 197.67 306.00 207.33 306.00 217.00
C 307.98 216.84 310.02 217.22 312.00 217.00 Z"/>
</g>
<g fill="#000000" fill-opacity="1.00" stroke="None">
<path d="
M 267.00 195.00 
C 258.52 193.03 246.49 196.00 238.03 195.03 C 229.56 194.05 226.86 209.24 236.00 210.00 C 245.14 210.76 255.65 209.27 265.00 210.00 C 274.34 210.72 275.59 197.00 267.00 195.00 Z"/>
</g>
<g fill="#676869" fill-opacity="1.00" stroke="None">
<path d="
M 312.00 232.00 
C 307.26 232.26 300.62 233.02 296.00 232.00
C 300.84 233.78 307.14 232.79 312.00 232.00 Z"/>
</g>
<g fill="#000000" fill-opacity="1.00" stroke="None">
<path d="
M 162.00 266.00 
C 147.87 263.07 131.59 266.61 117.07 266.07 C 102.56 265.54 105.49 289.93 106.00 299.00 C 106.51 308.07 101.26 331.93 116.00 333.00 C 130.74 334.07 146.09 333.45 160.98 332.98 C 175.86 332.50 172.21 310.36 172.00 300.00 C 171.79 289.64 176.25 268.95 162.00 266.00
M 157.00 318.00 
C 152.97 320.82 143.97 316.53 139.00 318.00 C 134.03 319.47 126.23 316.90 121.00 318.00
C 121.00 305.67 121.00 293.33 121.00 281.00
C 133.00 281.00 145.00 281.00 157.00 281.00
C 159.74 282.92 158.13 295.42 158.00 299.00 C 157.87 302.58 159.90 315.97 157.00 318.00 Z"/>
</g>
<g fill="#000000" fill-opacity="1.00" stroke="None">
<path d="
M 400.00 274.00 
C 388.73 271.38 375.53 275.32 364.00 274.00 C 352.47 272.68 340.60 274.81 329.00 274.00 C 317.40 273.19 305.62 274.85 294.00 274.00 C 282.38 273.15 269.51 275.43 258.00 274.00 C 246.49 272.57 234.15 277.04 223.00 274.00 C 211.85 270.96 203.32 286.14 215.00 289.00 C 226.68 291.86 239.27 287.55 251.00 289.00 C 262.73 290.45 274.30 288.08 286.00 289.00 C 297.70 289.92 309.31 288.00 321.00 289.00 C 332.69 290.00 345.41 287.28 357.00 289.00 C 368.59 290.72 380.69 285.31 392.00 289.00 C 403.31 292.69 412.77 276.97 400.00 274.00 Z"/>
</g>
<g fill="#7BC0FB" fill-opacity="1.00" stroke="None">
<path d="
M 157.00 318.00 
C 157.00 305.67 157.00 293.33 157.00 281.00
C 145.00 281.00 133.00 281.00 121.00 281.00
C 121.00 293.33 121.00 305.67 121.00 318.00
C 126.23 316.90 134.03 319.47 139.00 318.00 C 143.97 316.53 152.97 320.82 157.00 318.00 Z"/>
</g>
<g fill="#264965" fill-opacity="1.00" stroke="None">
<path d="
M 157.00 318.00 
C 159.90 315.97 157.87 302.58 158.00 299.00 C 158.13 295.42 159.74 282.92 157.00 281.00
C 157.00 293.33 157.00 305.67 157.00 318.00 Z"/>
</g>
<g fill="#000000" fill-opacity="1.00" stroke="None">
<path d="
M 345.00 310.00 
C 334.95 306.65 320.61 311.17 310.00 310.00 C 299.39 308.83 285.47 309.77 275.00 310.00 C 264.53 310.23 250.59 308.08 241.00 310.00 C 231.41 311.92 215.45 303.49 209.93 313.93 C 204.41 324.36 222.98 326.36 232.00 325.00 C 241.02 323.64 255.75 325.08 266.00 325.00 C 276.25 324.92 290.43 323.96 301.00 325.00 C 311.57 326.04 325.83 322.14 336.00 325.00 C 346.17 327.86 355.89 313.63 345.00 310.00 Z"/>
</g>
<g fill="#000000" fill-opacity="1.00" stroke="None">
<path d="
M 164.00 372.00 
C 149.38 368.38 135.20 374.44 120.00 372.00 C 104.80 369.56 103.94 391.42 106.00 402.00 C 108.06 412.58 99.72 434.01 114.33 437.67 C 128.94 441.33 142.48 435.27 158.00 438.00 C 173.52 440.73 173.96 418.42 172.00 408.00 C 170.04 397.58 177.85 375.43 164.00 372.00
M 121.00 423.00 
C 118.18 418.97 122.47 409.97 121.00 405.00 C 119.53 400.03 122.10 392.23 121.00 387.00
C 133.00 387.00 145.00 387.00 157.00 387.00
C 159.80 388.96 158.07 401.37 158.00 405.00 C 157.93 408.63 159.88 420.58 157.22 423.22 C 154.56 425.87 142.67 423.93 139.00 424.00 C 135.33 424.07 122.95 425.79 121.00 423.00 Z"/>
</g>
<g fill="#000000" fill-opacity="1.00" stroke="None">
<path d="
M 402.00 380.00 
C 392.43 376.47 379.27 381.54 369.00 380.00 C 358.73 378.46 346.47 380.58 336.00 380.00 C 325.53 379.42 314.44 379.93 304.00 380.00 C 293.56 380.07 281.15 379.29 271.00 380.00 C 260.85 380.71 247.30 378.18 238.00 380.00 C 228.70 381.82 215.15 373.95 209.93 383.93 C 204.70 393.91 221.23 396.54 230.00 395.00 C 238.77 393.46 252.07 395.56 262.00 395.00 C 271.93 394.44 284.60 395.02 295.00 395.00 C 305.40 394.98 317.54 394.50 328.00 395.00 C 338.46 395.50 349.72 393.58 360.00 395.00 C 370.28 396.42 383.25 391.84 393.00 395.00 C 402.75 398.16 412.16 383.75 402.00 380.00 Z"/>
</g>
<g fill="#7CC3FE" fill-opacity="1.00" stroke="None">
<path d="
M 121.00 423.00 
C 133.00 423.00 145.00 423.00 157.00 423.00
C 157.00 411.00 157.00 399.00 157.00 387.00
C 145.00 387.00 133.00 387.00 121.00 387.00
C 122.10 392.23 119.53 400.03 121.00 405.00 C 122.47 409.97 118.18 418.97 121.00 423.00 Z"/>
</g>
<g fill="#2C4B66" fill-opacity="1.00" stroke="None">
<path d="
M 121.00 423.00 
C 122.95 425.79 135.33 424.07 139.00 424.00 C 142.67 423.93 154.56 425.87 157.22 423.22 C 159.88 420.58 157.93 408.63 158.00 405.00 C 158.07 401.37 159.80 388.96 157.00 387.00
C 157.00 399.00 157.00 411.00 157.00 423.00
C 145.00 423.00 133.00 423.00 121.00 423.00 Z"/>
</g>
<g fill="#626364" fill-opacity="1.00" stroke="None">
<path d="
M 215.00 416.00 
C 228.38 413.03 244.24 416.81 258.00 416.00 C 271.76 415.19 287.24 415.19 301.00 416.00 C 314.76 416.81 330.62 413.04 344.00 416.00
C 331.91 411.54 314.49 415.84 301.00 415.00 C 287.51 414.16 270.43 414.25 257.00 415.00 C 243.57 415.75 227.02 411.56 215.00 416.00 Z"/>
</g>
<g fill="#000000" fill-opacity="1.00" stroke="None">
<path d="
M 344.00 416.00 
C 330.62 413.04 314.76 416.81 301.00 416.00 C 287.24 415.19 271.76 415.19 258.00 416.00 C 244.24 416.81 228.38 413.03 215.00 416.00
C 200.81 421.24 215.24 433.17 226.00 430.00 C 236.76 426.83 250.73 430.92 262.00 430.00 C 273.27 429.08 286.71 429.29 298.00 430.00 C 309.29 430.71 323.16 427.18 334.00 430.00 C 344.84 432.82 357.55 421.00 344.00 416.00 Z"/>
</g>
</svg>